# xmcd
#
# Track frame offsets: 
#        150
#        16605
#        32815
#        50675
#        68482
#        84505
#        107352
#        123992
#        137635
#        161210
#        188115
#        204835
#        226520
#        247077
#        264680
#        287022
#
# Disc length: 4060 seconds
#
# Revision: 4
# Processed by: cddbd v1.5.2PL0 Copyright (c) Steve Scherf et al.
# Submitted via: ExactAudioCopyFreeDBPlugin 1.0
#
DISCID=d00fda10
DTITLE=Teddy Pendergrass - Greatest Hits
DYEAR=1992
DGENRE=R&B
TTITLE0=Turn Off The Lights
TTITLE1=Close The Door
TTITLE2=I Don't Love You Anymore
TTITLE3=The Whole Town's Laughing At Me
TTITLE4=Only You
TTITLE5=Can't We Try
TTITLE6=Love T.K.O.
TTITLE7=I Can't Live Without Your Love
TTITLE8=You're My Latest, My Greatest Inspiration
TTITLE9=It's Time For Love
TTITLE10=Life Is A Song Worth Singing
TTITLE11=I'll Never See Heaven Again
TTITLE12=All I Need Is You
TTITLE13=Cold Cold World
TTITLE14=When Somebody Loves You Back
TTITLE15=Is It Still Good To Ya
EXTD=
EXTT0=
EXTT1=
EXTT2=
EXTT3=
EXTT4=
EXTT5=
EXTT6=
EXTT7=
EXTT8=
EXTT9=
EXTT10=
EXTT11=
EXTT12=
EXTT13=
EXTT14=
EXTT15=
PLAYORDER=
